<svg aria-hidden="true" style="position: absolute; width: 0; height: 0; overflow: hidden;" version="1.1" xmlns="http://www.w3.org/2000/svg" xmlns:xlink="http://www.w3.org/1999/xlink">
  <defs>
    <symbol id="icon-log-in" viewBox="0 0 32 32">
      <path stroke-width="3.2" stroke-miterlimit="4" stroke-linecap="round" stroke-linejoin="round" d="M20 4h1.6c2.24 0 3.36 0 4.216 0.436 0.753 0.383 1.364 0.995 1.748 1.748 0.436 0.856 0.436 1.976 0.436 4.216v11.2c0 2.24 0 3.36-0.436 4.216-0.384 0.753-0.995 1.364-1.748 1.748-0.856 0.436-1.976 0.436-4.216 0.436h-1.6"></path>
      <path stroke-width="3.2" stroke-miterlimit="4" stroke-linecap="round" stroke-linejoin="round" d="M13.333 9.333l6.667 6.667M20 16l-6.667 6.667M20 16h-16"></path>
    </symbol>
    <symbol id="icon-log-out" viewBox="0 0 32 32">
      <path stroke-width="2.6667" stroke-miterlimit="4" stroke-linecap="round" stroke-linejoin="round" d="M1.333 6.4l5.333-5.067v29.333l-5.333-5.067zM6.667 6.667h9.333c0.8 0 1.333 0.533 1.333 1.333v2.667M6.667 25.333h9.333c0.8 0 1.333-0.533 1.333-1.333v-2.667M29.333 16h-16M25.333 10.667l4.267 4.267c0.533 0.533 0.533 1.333 0 1.867l-4.267 4.533"></path>
    </symbol>
    <symbol id="icon-close" viewBox="0 0 32 32">
      <path d="M7.493 6.874c-0.621 0.285-0.894 1.028-0.609 1.659 0.083 0.184 0.95 1.083 3.718 3.854l3.61 3.613-3.61 3.613c-2.768 2.771-3.635 3.67-3.718 3.854-0.211 0.467-0.11 1.056 0.242 1.407 0.351 0.352 0.94 0.453 1.407 0.242 0.184-0.083 1.083-0.95 3.854-3.718l3.613-3.61 3.613 3.61c2.771 2.768 3.67 3.635 3.854 3.718 0.467 0.211 1.056 0.11 1.407-0.242 0.352-0.351 0.453-0.94 0.242-1.407-0.083-0.184-0.95-1.083-3.718-3.854l-3.61-3.613 3.61-3.613c2.768-2.771 3.635-3.67 3.718-3.854 0.211-0.467 0.11-1.056-0.242-1.407-0.351-0.352-0.94-0.453-1.407-0.242-0.184 0.083-1.083 0.95-3.854 3.718l-3.613 3.61-3.613-3.61c-2.771-2.768-3.67-3.635-3.854-3.718-0.305-0.138-0.753-0.142-1.040-0.010z"></path>
    </symbol>
    <symbol id="icon-eye-off" viewBox="0 0 32 32">
      <path d="M0.213 0.213l-0.213 0.214v1.835l5.699 5.71-0.627 0.568c-1.67 1.51-3.581 3.931-4.771 6.045l-0.301 0.534v1.806l0.328 0.563c1.241 2.101 2.658 3.915 4.279 5.525l0.002 0.001c1.693 1.686 3.133 2.75 4.976 3.672 1.405 0.735 3.041 1.258 4.773 1.473l0.070 0.007c0.763 0.093 2.477 0.077 3.253-0.030 2.151-0.288 4.093-0.98 5.817-2.001l-0.071 0.039 0.307-0.174 6.005 5.998h1.835l0.214-0.213 0.213-0.214v-1.838l-29.734-29.734h-1.838l-0.214 0.213zM14.778 3.792c-0.734 0.066-1.795 0.254-2.128 0.379-0.361 0.144-0.653 0.396-0.844 0.715l-0.004 0.008c-0.184 0.314-0.229 0.891-0.099 1.282 0.178 0.531 0.746 0.994 1.304 1.059 0.154 0.019 0.466-0.011 0.81-0.078 2.525-0.494 4.934-0.142 7.296 1.066 0.957 0.49 2.147 1.302 3.021 2.062 0.886 0.771 2.123 2.091 2.947 3.142 0.546 0.696 1.72 2.445 1.72 2.56 0 0.184-1.106 1.819-1.928 2.853-0.178 0.215-0.351 0.453-0.507 0.702l-0.016 0.028c-0.253 0.496-0.184 1.149 0.171 1.63 0.547 0.739 1.642 0.858 2.309 0.25 0.592-0.539 2.229-2.856 2.95-4.174l0.221-0.405v-1.797l-0.328-0.563c-0.419-0.718-1.28-2.010-1.795-2.693-1.493-1.973-3.454-3.926-5.157-5.133-1.36-0.963-3.024-1.81-4.48-2.278-1.287-0.419-2.768-0.661-4.306-0.661-0.407 0-0.81 0.017-1.209 0.050l0.052-0.003zM10.832 13.762c-0.328 0.687-0.52 1.494-0.52 2.345 0 1.54 0.628 2.934 1.641 3.939l0 0c1.006 1.013 2.4 1.641 3.94 1.641 0.851 0 1.657-0.191 2.378-0.534l-0.034 0.014 0.451-0.211 2.701 2.696-0.562 0.272c-1.573 0.763-3.686 1.205-5.362 1.123-3.834-0.187-7.57-2.542-10.797-6.802-0.533-0.706-1.47-2.133-1.47-2.242 0-0.101 0.674-1.165 1.166-1.845 0.916-1.248 1.891-2.347 2.96-3.348l0.013-0.012 0.624-0.57 3.080 3.080-0.211 0.451zM15.981 18.496c-0.307 0.021-0.872-0.112-1.218-0.288-0.738-0.374-1.27-1.275-1.27-2.152v-0.296l2.722 2.72-0.234 0.016z"></path>
    </symbol>
    <symbol id="icon-eye" viewBox="0 0 24 24">
      <path d="M12 4.5C7 4.5 2.73 7.61 1 12c1.73 4.39 6 7.5 11 7.5s9.27-3.11 11-7.5c-1.73-4.39-6-7.5-11-7.5zM12 17c-2.76 0-5-2.24-5-5s2.24-5 5-5 5 2.24 5 5-2.24 5-5 5z"></path>
      <path d="M12 9c-1.66 0-3 1.34-3 3s1.34 3 3 3 3-1.34 3-3-1.34-3-3-3z"></path>
    </symbol>
    <symbol id="icon-book-open" viewBox="0 0 32 32">
      <path d="M4.9 2.56c-1.008 0.116-1.732 0.44-2.438 1.094-0.584 0.54-0.962 1.218-1.162 2.080-0.096 0.404-0.1 0.812-0.1 8.266s0.004 7.862 0.1 8.266c0.188 0.814 0.494 1.39 1.038 1.96 0.53 0.556 1.15 0.91 1.956 1.118 0.396 0.102 0.646 0.114 3.572 0.152 3.54 0.044 3.576 0.048 4.348 0.436 0.658 0.328 1.15 0.84 1.916 1.988 0.706 1.056 0.894 1.274 1.256 1.446 0.556 0.262 1.26 0.124 1.686-0.332 0.106-0.114 0.466-0.616 0.796-1.114 0.762-1.146 1.256-1.658 1.918-1.988 0.772-0.388 0.808-0.392 4.348-0.436 2.982-0.040 3.17-0.048 3.6-0.158 1.459-0.37 2.584-1.501 2.938-2.936l0.006-0.028 0.122-0.48v-7.868c0-7.48-0.004-7.886-0.1-8.292-0.175-0.837-0.596-1.556-1.183-2.098l-0.003-0.002c-0.521-0.495-1.181-0.85-1.915-1l-0.025-0.004c-0.412-0.088-0.74-0.096-3.468-0.094-3.216 0.004-3.738 0.038-4.726 0.296-1.235 0.35-2.288 1.012-3.104 1.896l-0.004 0.005-0.272 0.308-0.272-0.308c-0.821-0.89-1.877-1.553-3.069-1.891l-0.047-0.011c-0.94-0.242-1.438-0.276-4.452-0.296-0.322-0.005-0.702-0.009-1.083-0.009-0.765 0-1.528 0.013-2.287 0.037l0.111-0.003zM10.106 5.546c0.616 0.026 1.3 0.084 1.52 0.13 1.304 0.272 2.43 1.398 2.696 2.698 0.046 0.22 0.106 0.904 0.132 1.52 0.048 1.078 0.076 13.892 0.030 13.892-0.012 0-0.15-0.084-0.306-0.188-0.444-0.282-0.954-0.532-1.492-0.723l-0.054-0.017c-0.864-0.29-1.114-0.31-4.446-0.352-2.094-0.026-3.156-0.058-3.29-0.1-0.238-0.076-0.602-0.47-0.658-0.714-0.062-0.272-0.092-13.986-0.032-14.802 0.048-0.636 0.068-0.728 0.19-0.89 0.256-0.336 0.414-0.408 0.982-0.452 0.748-0.056 3.428-0.058 4.728-0.002zM27.036 5.58c0.174 0.057 0.321 0.156 0.435 0.285l0.001 0.001c0.222 0.222 0.258 0.29 0.296 0.566 0.058 0.404 0.060 14.722 0.002 15.124-0.019 0.215-0.113 0.405-0.256 0.546l-0 0c-0.11 0.13-0.247 0.233-0.403 0.301l-0.007 0.003c-0.134 0.042-1.196 0.074-3.29 0.1-3.332 0.042-3.582 0.062-4.446 0.352-0.592 0.208-1.102 0.458-1.578 0.759l0.032-0.019c-0.087 0.062-0.187 0.125-0.291 0.181l-0.015 0.007c-0.044 0-0.018-12.806 0.030-13.892 0.026-0.616 0.084-1.3 0.13-1.52 0.319-1.343 1.356-2.38 2.673-2.695l0.025-0.005c0.22-0.046 0.82-0.104 1.332-0.128 1.040-0.048 5.044-0.022 5.33 0.034z"></path>
    </symbol>
    <symbol id="icon-star" viewBox="0 0 32 32">
      <path fill="#ffc531" style="fill: var(--color1, #ffc531)" d="M14.72 7.556c-0.69 1.31-1.344 2.52-1.454 2.688-0.304 0.426-0.678 0.78-1.108 1.054l-0.016 0.010c-0.458 0.266-0.856 0.356-3.606 0.83-1.454 0.248-2.69 0.472-2.746 0.494-0.088 0.036 0.192 0.348 1.92 2.124 1.278 1.314 2.088 2.19 2.2 2.378 0.308 0.518 0.45 1.008 0.474 1.64 0.016 0.482-0.036 0.932-0.376 3.28-0.014-0.092-0.15 0.838-0.279 1.771l-0.109 0.955c0.004 0.004 1.174-0.566 2.602-1.266s2.748-1.314 2.934-1.364c0.444-0.12 1.244-0.12 1.688 0 0.186 0.050 1.488 0.654 2.894 1.344 1.406 0.688 2.576 1.252 2.6 1.252s-0.134-1.218-0.348-2.706c-0.338-2.326-0.39-2.786-0.374-3.266 0.024-0.632 0.164-1.122 0.474-1.64 0.11-0.186 0.926-1.068 2.198-2.378 1.716-1.766 2.008-2.088 1.92-2.124-0.363-0.092-1.294-0.265-2.229-0.422l-0.515-0.072c-2.75-0.474-3.148-0.564-3.606-0.83-0.445-0.284-0.819-0.637-1.116-1.050l-0.008-0.012c-0.284-0.464-0.768-1.344-1.236-2.234l-0.218-0.456c-0.63-1.239-1.056-2.019-1.493-2.791l0.213 0.409c-0.014 0-0.59 1.072-1.28 2.382z"></path>
    </symbol>
    <symbol id="icon-heart" viewBox="0 0 32 32">
      <path d="M8.453 2.832c-2.569 0.267-4.942 1.769-6.329 4.005-0.798 1.268-1.271 2.81-1.271 4.463 0 0.012 0 0.023 0 0.035v-0.002c0 1.903 0.564 3.58 1.748 5.199 0.375 0.513 12.474 12.644 12.81 12.843s0.843 0.199 1.179 0c0.336-0.199 12.434-12.33 12.81-12.843 1.184-1.618 1.748-3.296 1.748-5.199 0-0.013 0-0.028 0-0.043 0-2.332-0.944-4.443-2.472-5.971l0 0c-1.788-1.804-4.293-2.729-6.769-2.501-1.172 0.107-1.969 0.319-2.946 0.779-0.956 0.45-1.583 0.894-2.414 1.703l-0.546 0.534-0.546-0.534c-0.831-0.81-1.457-1.253-2.414-1.703-1.067-0.515-2.321-0.816-3.645-0.816-0.332 0-0.66 0.019-0.982 0.056l0.039-0.004zM10.345 5.31c0.665 0.116 1.261 0.311 1.814 0.58l-0.040-0.018c0.668 0.335 1.093 0.671 2.122 1.68 0.572 0.561 1.124 1.063 1.227 1.118 0.252 0.132 0.814 0.132 1.066 0 0.103-0.054 0.655-0.558 1.227-1.119 0.608-0.598 1.199-1.126 1.424-1.275 0.968-0.651 2.16-1.040 3.443-1.040 0.104 0 0.207 0.003 0.309 0.008l-0.014-0.001c0.79 0.046 1.359 0.185 2.166 0.53 1.502 0.642 2.751 2.010 3.28 3.59 0.207 0.588 0.327 1.265 0.327 1.971 0 1.365-0.449 2.626-1.206 3.642l0.012-0.016c-0.208 0.283-2.187 2.303-5.906 6.027l-5.594 5.6-5.594-5.6c-3.719-3.724-5.698-5.744-5.906-6.027-1.586-2.165-1.594-5.105-0.015-7.227 1.028-1.381 2.398-2.186 4.208-2.47 0.332-0.053 1.191-0.028 1.652 0.047z"></path>
    </symbol>
    <symbol id="icon-heart-active" viewBox="0 0 37 32">
      <path fill="#f4c550" style="fill: var(--color1, #f4c550)" d="M8.594 1.618c-3.311 0.519-5.944 2.931-6.78 6.075l-0.013 0.058c-0.173 0.591-0.273 1.271-0.273 1.974 0 0.157 0.005 0.313 0.015 0.467l-0.001-0.021c0.087 2.036 0.803 3.765 2.199 5.318 0.283 0.314 3.61 3.665 7.394 7.444l6.878 6.874 7.285-7.301c7.563-7.576 7.639-7.659 8.229-8.751 0.614-1.133 0.975-2.48 0.975-3.912s-0.361-2.779-0.997-3.956l0.022 0.044c-1-1.856-2.699-3.301-4.635-3.944-0.94-0.312-1.455-0.407-2.408-0.443-0.111-0.005-0.241-0.009-0.372-0.009-1.189 0-2.318 0.257-3.334 0.718l0.051-0.021c-1.118 0.491-1.769 0.98-3.31 2.484l-1.222 1.195h-0.573l-1.196-1.176c-1.221-1.198-1.778-1.661-2.539-2.104-1.202-0.692-2.644-1.101-4.181-1.101-0.428 0-0.849 0.032-1.26 0.093l0.046-0.006z"></path>
    </symbol>
  </defs>
</svg>
