<svg aria-hidden="true" style="position: absolute; width: 0; height: 0; overflow: hidden;" version="1.1" xmlns="http://www.w3.org/2000/svg" xmlns:xlink="http://www.w3.org/1999/xlink">
  <defs>
    <symbol id="icon-log-in" viewBox="0 0 32 32">
      <path stroke-width="3.2" stroke-miterlimit="4" stroke-linecap="round" stroke-linejoin="round" d="M20 4h1.6c2.24 0 3.36 0 4.216 0.436 0.753 0.383 1.364 0.995 1.748 1.748 0.436 0.856 0.436 1.976 0.436 4.216v11.2c0 2.24 0 3.36-0.436 4.216-0.384 0.753-0.995 1.364-1.748 1.748-0.856 0.436-1.976 0.436-4.216 0.436h-1.6"></path>
      <path stroke-width="3.2" stroke-miterlimit="4" stroke-linecap="round" stroke-linejoin="round" d="M13.333 9.333l6.667 6.667M20 16l-6.667 6.667M20 16h-16"></path>
    </symbol>
    <symbol id="icon-log-out" viewBox="0 0 32 32">
      <path stroke-width="2.6667" stroke-miterlimit="4" stroke-linecap="round" stroke-linejoin="round" d="M1.333 6.4l5.333-5.067v29.333l-5.333-5.067zM6.667 6.667h9.333c0.8 0 1.333 0.533 1.333 1.333v2.667M6.667 25.333h9.333c0.8 0 1.333-0.533 1.333-1.333v-2.667M29.333 16h-16M25.333 10.667l4.267 4.267c0.533 0.533 0.533 1.333 0 1.867l-4.267 4.533"></path>
    </symbol>
    <symbol id="icon-close" viewBox="0 0 32 32">
      <path d="M7.493 6.874c-0.621 0.285-0.894 1.028-0.609 1.659 0.083 0.184 0.95 1.083 3.718 3.854l3.61 3.613-3.61 3.613c-2.768 2.771-3.635 3.67-3.718 3.854-0.211 0.467-0.11 1.056 0.242 1.407 0.351 0.352 0.94 0.453 1.407 0.242 0.184-0.083 1.083-0.95 3.854-3.718l3.613-3.61 3.613 3.61c2.771 2.768 3.67 3.635 3.854 3.718 0.467 0.211 1.056 0.11 1.407-0.242 0.352-0.351 0.453-0.94 0.242-1.407-0.083-0.184-0.95-1.083-3.718-3.854l-3.61-3.613 3.61-3.613c2.768-2.771 3.635-3.67 3.718-3.854 0.211-0.467 0.11-1.056-0.242-1.407-0.351-0.352-0.94-0.453-1.407-0.242-0.184 0.083-1.083 0.95-3.854 3.718l-3.613 3.61-3.613-3.61c-2.771-2.768-3.67-3.635-3.854-3.718-0.305-0.138-0.753-0.142-1.040-0.010z"></path>
    </symbol>
    <symbol id="icon-eye-off" viewBox="0 0 32 32">
      <path d="M0.213 0.213l-0.213 0.214v1.835l5.699 5.71-0.627 0.568c-1.67 1.51-3.581 3.931-4.771 6.045l-0.301 0.534v1.806l0.328 0.563c1.241 2.101 2.658 3.915 4.279 5.525l0.002 0.001c1.693 1.686 3.133 2.75 4.976 3.672 1.405 0.735 3.041 1.258 4.773 1.473l0.070 0.007c0.763 0.093 2.477 0.077 3.253-0.030 2.151-0.288 4.093-0.98 5.817-2.001l-0.071 0.039 0.307-0.174 6.005 5.998h1.835l0.214-0.213 0.213-0.214v-1.838l-29.734-29.734h-1.838l-0.214 0.213zM14.778 3.792c-0.734 0.066-1.795 0.254-2.128 0.379-0.361 0.144-0.653 0.396-0.844 0.715l-0.004 0.008c-0.184 0.314-0.229 0.891-0.099 1.282 0.178 0.531 0.746 0.994 1.304 1.059 0.154 0.019 0.466-0.011 0.81-0.078 2.525-0.494 4.934-0.142 7.296 1.066 0.957 0.49 2.147 1.302 3.021 2.062 0.886 0.771 2.123 2.091 2.947 3.142 0.546 0.696 1.72 2.445 1.72 2.56 0 0.184-1.106 1.819-1.928 2.853-0.178 0.215-0.351 0.453-0.507 0.702l-0.016 0.028c-0.253 0.496-0.184 1.149 0.171 1.63 0.547 0.739 1.642 0.858 2.309 0.25 0.592-0.539 2.229-2.856 2.95-4.174l0.221-0.405v-1.797l-0.328-0.563c-0.419-0.718-1.28-2.010-1.795-2.693-1.493-1.973-3.454-3.926-5.157-5.133-1.36-0.963-3.024-1.81-4.48-2.278-1.287-0.419-2.768-0.661-4.306-0.661-0.407 0-0.81 0.017-1.209 0.050l0.052-0.003zM10.832 13.762c-0.328 0.687-0.52 1.494-0.52 2.345 0 1.54 0.628 2.934 1.641 3.939l0 0c1.006 1.013 2.4 1.641 3.94 1.641 0.851 0 1.657-0.191 2.378-0.534l-0.034 0.014 0.451-0.211 2.701 2.696-0.562 0.272c-1.573 0.763-3.686 1.205-5.362 1.123-3.834-0.187-7.57-2.542-10.797-6.802-0.533-0.706-1.47-2.133-1.47-2.242 0-0.101 0.674-1.165 1.166-1.845 0.916-1.248 1.891-2.347 2.96-3.348l0.013-0.012 0.624-0.57 3.080 3.080-0.211 0.451zM15.981 18.496c-0.307 0.021-0.872-0.112-1.218-0.288-0.738-0.374-1.27-1.275-1.27-2.152v-0.296l2.722 2.72-0.234 0.016z"></path>
    </symbol>
    <symbol id="icon-eye" viewBox="0 0 24 24">
      <path d="M12 4.5C7 4.5 2.73 7.61 1 12c1.73 4.39 6 7.5 11 7.5s9.27-3.11 11-7.5c-1.73-4.39-6-7.5-11-7.5zM12 17c-2.76 0-5-2.24-5-5s2.24-5 5-5 5 2.24 5 5-2.24 5-5 5z"></path>
      <path d="M12 9c-1.66 0-3 1.34-3 3s1.34 3 3 3 3-1.34 3-3-1.34-3-3-3z"></path>
    </symbol>
  </defs>
</svg>
